<svg width="32" height="32" viewBox="0 0 32 32" fill="none" xmlns="http://www.w3.org/2000/svg">
<path d="M28.8186 7.21623L16.9561 1.28498C16.6589 1.1376 16.3316 1.06091 15.9998 1.06091C15.6681 1.06091 15.3408 1.1376 15.0436 1.28498L3.18108 7.21623C2.76249 7.42693 2.42442 7.76892 2.21855 8.18991C2.01268 8.6109 1.95035 9.08772 2.04107 9.54748L3.70233 17.8512C4.38519 21.2687 6.31885 24.3082 9.12483 26.375L14.7348 30.5187C15.1018 30.7922 15.5472 30.94 16.0048 30.94C16.4625 30.94 16.9079 30.7922 17.2748 30.5187L17.9836 29.995C17.5121 29.5219 17.098 28.995 16.7498 28.425L16.0873 28.9137C16.0639 28.9314 16.0354 28.9409 16.0061 28.9409C15.9768 28.9409 15.9482 28.9314 15.9248 28.9137L10.3148 24.77C9.86509 24.4375 9.43867 24.0746 9.03858 23.6837C9.21351 22.6322 9.62406 21.6338 10.2395 20.7634C10.8549 19.893 11.6593 19.173 12.5923 18.6575L13.9998 17.875C14.7608 18.2071 15.5926 18.3445 16.4199 18.2747C17.2473 18.205 18.0443 17.9303 18.7389 17.4754C19.4336 17.0205 20.004 16.3998 20.3987 15.6693C20.7934 14.9388 21 14.1215 20.9998 13.2912V11.7087C20.9998 10.3827 20.473 9.11088 19.5354 8.1732C18.5977 7.23552 17.3259 6.70873 15.9998 6.70873C14.6737 6.70873 13.402 7.23552 12.4643 8.1732C11.5266 9.11088 10.9998 10.3827 10.9998 11.7087V13.2912C10.9993 14.497 11.4363 15.6621 12.2298 16.57L11.6248 16.9062C9.69125 17.9746 8.21421 19.7121 7.47107 21.7925C6.59098 20.481 5.97844 19.0087 5.66858 17.46L3.99983 9.15498C3.99435 9.12537 3.99857 9.09479 4.01186 9.06777C4.02514 9.04075 4.04679 9.01873 4.07358 9.00498L15.9361 3.07373C15.9556 3.06432 15.9769 3.05943 15.9986 3.05943C16.0202 3.05943 16.0416 3.06432 16.0611 3.07373L27.9236 8.99998C27.9504 9.01373 27.972 9.03575 27.9853 9.06277C27.9986 9.08979 28.0028 9.12037 27.9973 9.14998L26.6436 15.915C27.2988 16.129 27.9252 16.4229 28.5086 16.79L29.9586 9.53998C30.0475 9.08135 29.9843 8.60621 29.7786 8.18678C29.5728 7.76736 29.2357 7.42657 28.8186 7.21623ZM12.9998 11.7087C12.9998 10.9131 13.3159 10.15 13.8785 9.58741C14.4411 9.0248 15.2042 8.70873 15.9998 8.70873C16.7955 8.70873 17.5585 9.0248 18.1211 9.58741C18.6838 10.15 18.9998 10.9131 18.9998 11.7087V13.2912C18.9998 14.0869 18.6838 14.8499 18.1211 15.4126C17.5585 15.9752 16.7955 16.2912 15.9998 16.2912C15.2042 16.2912 14.4411 15.9752 13.8785 15.4126C13.3159 14.8499 12.9998 14.0869 12.9998 13.2912V11.7087Z" fill="url(#paint0_linear_12_155934)"/>
<path d="M28.95 19.05C27.971 18.0711 26.7237 17.4045 25.3659 17.1345C24.008 16.8644 22.6006 17.0031 21.3215 17.5329C20.0425 18.0627 18.9493 18.96 18.1802 20.1111C17.411 21.2622 17.0005 22.6156 17.0005 24C17.0005 25.3844 17.411 26.7378 18.1802 27.8889C18.9493 29.04 20.0425 29.9373 21.3215 30.4671C22.6006 30.9969 24.008 31.1356 25.3659 30.8656C26.7237 30.5955 27.971 29.9289 28.95 28.95C29.6001 28.3 30.1157 27.5283 30.4676 26.679C30.8194 25.8296 31.0005 24.9193 31.0005 24C31.0005 23.0807 30.8194 22.1704 30.4676 21.3211C30.1157 20.4717 29.6001 19.7 28.95 19.05ZM28 25H25V28H23V25H20V23H23V20H25V23H28V25Z" fill="url(#paint1_linear_12_155934)"/>
<defs>
<linearGradient id="paint0_linear_12_155934" x1="2.00049" y1="1.06091" x2="18.7117" y2="36.2932" gradientUnits="userSpaceOnUse">
<stop offset="0.272135" stop-color="#34263B"/>
<stop offset="0.658079" stop-color="#13172C"/>
</linearGradient>
<linearGradient id="paint1_linear_12_155934" x1="17.3667" y1="18.0988" x2="28.9017" y2="29.6338" gradientUnits="userSpaceOnUse">
<stop offset="0.35" stop-color="#F7052D"/>
<stop offset="0.85" stop-color="#CA5AFA"/>
</linearGradient>
</defs>
</svg>
